# xmcd
#
# Track frame offsets:
#	150
#	17212
#	34622
#	49722
#	65466
#	79425
#	95677
#	112041
#	128730
#	145032
#	158153
#	177538
#	190909
#
# Disc length: 2688 seconds
#
# Revision: 2
# Processed by: cddbd v1.5.2PL0 Copyright (c) Steve Scherf et al.
# Submitted via: audiograbber 1.83.01
#
DISCID=b40a7e0d
DTITLE=Various Artist - Nu Country Traxx 004
DYEAR=1999
DGENRE=Country
TTITLE0=Brooks and Dunn - Missing You
TTITLE1=Kenny Chesney - You Had Me From Hello
TTITLE2=Jerry Kilgore - Love Trip
TTITLE3=John Michael Montgomery - Home To You
TTITLE4=Andy Griggs - I'll Go Crazy
TTITLE5=Sonya Isaacs - On My Way To You
TTITLE6=Lee Roy Parnell - She Won't Be Lonely Long
TTITLE7=Suzy Bogguss - Goodnight
TTITLE8=Sean Hogan - Sure Fire Love
TTITLE9=John Landry - Bit By Bit
TTITLE10=Suspects - Mekong Delta Blues
TTITLE11=Patricia Conroy - Sin't Nobody Like You
TTITLE12=John Mcnab - Suddenly
EXTD=
EXTT0=
EXTT1=
EXTT2=
EXTT3=
EXTT4=
EXTT5=
EXTT6=
EXTT7=
EXTT8=
EXTT9=
EXTT10=
EXTT11=
EXTT12=
PLAYORDER=
